<?xml version="1.0" encoding="UTF-8"?>
<svg xmlns="http://www.w3.org/2000/svg" width="596" height="596" viewBox="0 0 596 596">
<defs>
  <filter id="glow" x="-25%" y="-25%" width="150%" height="150%">
    <feGaussianBlur in="SourceGraphic" stdDeviation="10" result="blur1"/>
    <feGaussianBlur in="SourceGraphic" stdDeviation="4" result="blur2"/>
    <feMerge>
      <feMergeNode in="blur1"/>
      <feMergeNode in="blur2"/>
      <feMergeNode in="SourceGraphic"/>
    </feMerge>
  </filter>
</defs>
<g fill="#32FDEA" filter="url(#glow)">
<rect x="112" y="113" width="2" height="1"/>
<rect x="482" y="113" width="1" height="1"/>
<rect x="482" y="483" width="1" height="1"/>
<rect x="112" y="114" width="3" height="1"/>
<rect x="112" y="483" width="3" height="1"/>
<rect x="481" y="114" width="2" height="1"/>
<rect x="481" y="482" width="2" height="1"/>
<rect x="112" y="115" width="4" height="1"/>
<rect x="480" y="115" width="3" height="1"/>
<rect x="480" y="481" width="3" height="1"/>
<rect x="112" y="116" width="5" height="1"/>
<rect x="112" y="481" width="5" height="1"/>
<rect x="479" y="116" width="4" height="1"/>
<rect x="479" y="480" width="4" height="1"/>
<rect x="112" y="117" width="6" height="1"/>
<rect x="477" y="117" width="6" height="1"/>
<rect x="477" y="479" width="6" height="1"/>
<rect x="112" y="118" width="8" height="1"/>
<rect x="112" y="478" width="8" height="1"/>
<rect x="476" y="118" width="7" height="1"/>
<rect x="112" y="119" width="9" height="1"/>
<rect x="112" y="477" width="9" height="1"/>
<rect x="475" y="119" width="8" height="1"/>
<rect x="112" y="120" width="10" height="1"/>
<rect x="112" y="476" width="10" height="1"/>
<rect x="474" y="120" width="9" height="1"/>
<rect x="112" y="121" width="11" height="1"/>
<rect x="112" y="475" width="11" height="1"/>
<rect x="473" y="121" width="10" height="1"/>
<rect x="112" y="122" width="12" height="1"/>
<rect x="112" y="474" width="12" height="1"/>
<rect x="472" y="122" width="11" height="1"/>
<rect x="112" y="123" width="13" height="1"/>
<rect x="112" y="473" width="13" height="1"/>
<rect x="471" y="123" width="12" height="1"/>
<rect x="112" y="124" width="14" height="1"/>
<rect x="470" y="124" width="13" height="1"/>
<rect x="112" y="125" width="15" height="1"/>
<rect x="112" y="472" width="15" height="1"/>
<rect x="469" y="125" width="15" height="1"/>
<rect x="469" y="472" width="15" height="1"/>
<rect x="112" y="126" width="16" height="1"/>
<rect x="112" y="471" width="16" height="1"/>
<rect x="468" y="126" width="16" height="1"/>
<rect x="468" y="471" width="16" height="1"/>
<rect x="112" y="127" width="17" height="1"/>
<rect x="112" y="470" width="17" height="1"/>
<rect x="467" y="127" width="17" height="1"/>
<rect x="467" y="470" width="17" height="1"/>
<rect x="112" y="128" width="18" height="1"/>
<rect x="112" y="469" width="18" height="1"/>
<rect x="465" y="128" width="19" height="1"/>
<rect x="465" y="468" width="19" height="1"/>
<rect x="112" y="129" width="19" height="1"/>
<rect x="112" y="468" width="19" height="1"/>
<rect x="464" y="129" width="20" height="2"/>
<rect x="464" y="467" width="20" height="1"/>
<rect x="112" y="130" width="21" height="1"/>
<rect x="112" y="466" width="21" height="1"/>
<rect x="112" y="131" width="22" height="1"/>
<rect x="112" y="465" width="22" height="1"/>
<rect x="462" y="131" width="22" height="1"/>
<rect x="462" y="465" width="22" height="1"/>
<rect x="112" y="132" width="23" height="1"/>
<rect x="112" y="464" width="23" height="1"/>
<rect x="461" y="132" width="23" height="1"/>
<rect x="461" y="464" width="23" height="1"/>
<rect x="112" y="133" width="24" height="1"/>
<rect x="112" y="463" width="24" height="1"/>
<rect x="460" y="133" width="24" height="1"/>
<rect x="112" y="134" width="25" height="1"/>
<rect x="112" y="462" width="25" height="1"/>
<rect x="459" y="134" width="25" height="1"/>
<rect x="112" y="135" width="26" height="1"/>
<rect x="458" y="135" width="26" height="1"/>
<rect x="112" y="136" width="27" height="1"/>
<rect x="112" y="461" width="27" height="1"/>
<rect x="457" y="136" width="27" height="1"/>
<rect x="112" y="137" width="28" height="1"/>
<rect x="112" y="460" width="28" height="1"/>
<rect x="456" y="137" width="28" height="1"/>
<rect x="112" y="138" width="29" height="1"/>
<rect x="112" y="459" width="29" height="1"/>
<rect x="455" y="138" width="29" height="1"/>
<rect x="455" y="463" width="29" height="1"/>
<rect x="112" y="139" width="31" height="1"/>
<rect x="112" y="457" width="31" height="1"/>
<rect x="454" y="139" width="30" height="1"/>
<rect x="112" y="140" width="32" height="1"/>
<rect x="112" y="456" width="32" height="1"/>
<rect x="452" y="140" width="32" height="1"/>
<rect x="72" y="141" width="7" height="1"/>
<rect x="72" y="144" width="7" height="1"/>
<rect x="112" y="141" width="33" height="1"/>
<rect x="112" y="455" width="33" height="1"/>
<rect x="451" y="141" width="33" height="1"/>
<rect x="71" y="142" width="8" height="2"/>
<rect x="112" y="142" width="34" height="1"/>
<rect x="112" y="454" width="34" height="1"/>
<rect x="450" y="142" width="44" height="1"/>
<rect x="112" y="143" width="35" height="1"/>
<rect x="112" y="453" width="35" height="1"/>
<rect x="449" y="143" width="46" height="1"/>
<rect x="112" y="144" width="36" height="1"/>
<rect x="448" y="144" width="47" height="1"/>
<rect x="112" y="145" width="37" height="1"/>
<rect x="112" y="452" width="37" height="1"/>
<rect x="447" y="145" width="48" height="1"/>
<rect x="112" y="146" width="38" height="1"/>
<rect x="112" y="451" width="38" height="1"/>
<rect x="446" y="146" width="49" height="1"/>
<rect x="112" y="147" width="39" height="1"/>
<rect x="112" y="450" width="39" height="1"/>
<rect x="445" y="147" width="50" height="1"/>
<rect x="112" y="148" width="40" height="1"/>
<rect x="112" y="449" width="40" height="1"/>
<rect x="444" y="148" width="51" height="1"/>
<rect x="112" y="149" width="41" height="1"/>
<rect x="112" y="448" width="41" height="1"/>
<rect x="443" y="149" width="52" height="1"/>
<rect x="112" y="150" width="42" height="1"/>
<rect x="112" y="447" width="42" height="1"/>
<rect x="441" y="150" width="54" height="1"/>
<rect x="112" y="151" width="44" height="1"/>
<rect x="112" y="445" width="44" height="1"/>
<rect x="440" y="151" width="55" height="1"/>
<rect x="112" y="152" width="45" height="1"/>
<rect x="112" y="444" width="45" height="1"/>
<rect x="439" y="152" width="56" height="1"/>
<rect x="112" y="153" width="46" height="1"/>
<rect x="112" y="443" width="46" height="1"/>
<rect x="438" y="153" width="57" height="1"/>
<rect x="112" y="154" width="47" height="1"/>
<rect x="112" y="442" width="47" height="1"/>
<rect x="437" y="154" width="58" height="1"/>
<rect x="112" y="155" width="48" height="1"/>
<rect x="112" y="441" width="48" height="1"/>
<rect x="436" y="155" width="59" height="1"/>
<rect x="112" y="156" width="49" height="1"/>
<rect x="112" y="397" width="49" height="4"/>
<rect x="112" y="440" width="49" height="1"/>
<rect x="435" y="156" width="60" height="1"/>
<rect x="112" y="157" width="50" height="1"/>
<rect x="112" y="396" width="50" height="1"/>
<rect x="434" y="157" width="61" height="1"/>
<rect x="112" y="158" width="52" height="1"/>
<rect x="112" y="438" width="52" height="1"/>
<rect x="433" y="158" width="62" height="1"/>
<rect x="112" y="159" width="53" height="1"/>
<rect x="112" y="437" width="53" height="1"/>
<rect x="432" y="159" width="63" height="1"/>
<rect x="112" y="160" width="54" height="1"/>
<rect x="112" y="391" width="54" height="5"/>
<rect x="112" y="436" width="54" height="1"/>
<rect x="431" y="160" width="64" height="1"/>
<rect x="112" y="161" width="55" height="1"/>
<rect x="112" y="390" width="55" height="1"/>
<rect x="112" y="435" width="55" height="1"/>
<rect x="429" y="161" width="66" height="1"/>
<rect x="112" y="162" width="56" height="1"/>
<rect x="112" y="434" width="56" height="1"/>
<rect x="428" y="162" width="67" height="1"/>
<rect x="112" y="163" width="57" height="1"/>
<rect x="112" y="433" width="57" height="1"/>
<rect x="427" y="163" width="67" height="1"/>
<rect x="112" y="164" width="58" height="1"/>
<rect x="112" y="432" width="58" height="1"/>
<rect x="426" y="164" width="58" height="1"/>
<rect x="112" y="165" width="59" height="1"/>
<rect x="112" y="431" width="59" height="1"/>
<rect x="425" y="165" width="58" height="1"/>
<rect x="425" y="432" width="58" height="1"/>
<rect x="112" y="166" width="60" height="1"/>
<rect x="112" y="430" width="60" height="1"/>
<rect x="424" y="166" width="59" height="1"/>
<rect x="112" y="167" width="61" height="1"/>
<rect x="423" y="167" width="60" height="1"/>
<rect x="112" y="168" width="62" height="1"/>
<rect x="112" y="429" width="62" height="1"/>
<rect x="422" y="168" width="61" height="1"/>
<rect x="112" y="169" width="64" height="2"/>
<rect x="112" y="427" width="64" height="1"/>
<rect x="421" y="169" width="62" height="1"/>
<rect x="420" y="170" width="63" height="1"/>
<rect x="112" y="171" width="66" height="1"/>
<rect x="112" y="261" width="66" height="1"/>
<rect x="112" y="307" width="66" height="7"/>
<rect x="112" y="320" width="66" height="57"/>
<rect x="112" y="382" width="66" height="8"/>
<rect x="112" y="401" width="66" height="15"/>
<rect x="418" y="171" width="65" height="1"/>
<rect x="418" y="386" width="65" height="1"/>
<rect x="418" y="388" width="65" height="24"/>
<rect x="112" y="172" width="67" height="1"/>
<rect x="112" y="260" width="67" height="1"/>
<rect x="112" y="381" width="67" height="1"/>
<rect x="417" y="172" width="66" height="1"/>
<rect x="494" y="172" width="7" height="5"/>
<rect x="494" y="405" width="7" height="2"/>
<rect x="112" y="173" width="68" height="1"/>
<rect x="112" y="377" width="68" height="1"/>
<rect x="416" y="173" width="67" height="1"/>
<rect x="112" y="174" width="69" height="1"/>
<rect x="415" y="174" width="68" height="1"/>
<rect x="112" y="175" width="70" height="1"/>
<rect x="414" y="175" width="69" height="1"/>
<rect x="112" y="176" width="71" height="1"/>
<rect x="413" y="176" width="70" height="1"/>
<rect x="112" y="177" width="72" height="1"/>
<rect x="112" y="380" width="72" height="1"/>
<rect x="412" y="177" width="71" height="1"/>
<rect x="112" y="178" width="73" height="1"/>
<rect x="112" y="378" width="73" height="2"/>
<rect x="411" y="178" width="72" height="1"/>
<rect x="112" y="179" width="74" height="1"/>
<rect x="410" y="179" width="73" height="1"/>
<rect x="112" y="180" width="75" height="1"/>
<rect x="409" y="180" width="74" height="1"/>
<rect x="112" y="181" width="76" height="1"/>
<rect x="408" y="181" width="75" height="1"/>
<rect x="120" y="182" width="69" height="1"/>
<rect x="406" y="182" width="77" height="1"/>
<rect x="121" y="183" width="69" height="1"/>
<rect x="406" y="183" width="72" height="1"/>
<rect x="121" y="184" width="71" height="1"/>
<rect x="404" y="184" width="74" height="1"/>
<rect x="121" y="185" width="86" height="1"/>
<rect x="362" y="185" width="7" height="1"/>
<rect x="382" y="185" width="96" height="2"/>
<rect x="121" y="186" width="89" height="1"/>
<rect x="361" y="186" width="8" height="3"/>
<rect x="121" y="187" width="90" height="1"/>
<rect x="381" y="187" width="97" height="2"/>
<rect x="121" y="188" width="91" height="1"/>
<rect x="121" y="189" width="92" height="1"/>
<rect x="380" y="189" width="98" height="1"/>
<rect x="121" y="190" width="94" height="2"/>
<rect x="379" y="190" width="90" height="1"/>
<rect x="372" y="191" width="97" height="5"/>
<rect x="105" y="192" width="7" height="2"/>
<rect x="121" y="192" width="95" height="2"/>
<rect x="105" y="194" width="8" height="1"/>
<rect x="120" y="194" width="96" height="1"/>
<rect x="105" y="195" width="99" height="1"/>
<rect x="112" y="196" width="93" height="1"/>
<rect x="371" y="196" width="98" height="1"/>
<rect x="112" y="197" width="94" height="1"/>
<rect x="364" y="197" width="105" height="1"/>
<rect x="112" y="198" width="95" height="1"/>
<rect x="364" y="198" width="112" height="1"/>
<rect x="112" y="199" width="96" height="1"/>
<rect x="364" y="199" width="113" height="1"/>
<rect x="112" y="200" width="97" height="1"/>
<rect x="385" y="200" width="92" height="1"/>
<rect x="112" y="201" width="98" height="1"/>
<rect x="384" y="201" width="93" height="2"/>
<rect x="112" y="202" width="100" height="2"/>
<rect x="382" y="203" width="95" height="1"/>
<rect x="112" y="204" width="102" height="1"/>
<rect x="381" y="204" width="96" height="1"/>
<rect x="112" y="205" width="103" height="1"/>
<rect x="380" y="205" width="103" height="1"/>
<rect x="112" y="206" width="104" height="1"/>
<rect x="379" y="206" width="104" height="1"/>
<rect x="112" y="207" width="105" height="1"/>
<rect x="378" y="207" width="105" height="1"/>
<rect x="112" y="208" width="106" height="1"/>
<rect x="322" y="208" width="10" height="4"/>
<rect x="377" y="208" width="106" height="1"/>
<rect x="112" y="209" width="107" height="1"/>
<rect x="376" y="209" width="107" height="1"/>
<rect x="112" y="210" width="108" height="1"/>
<rect x="250" y="210" width="4" height="1"/>
<rect x="375" y="210" width="108" height="1"/>
<rect x="112" y="211" width="109" height="1"/>
<rect x="249" y="211" width="6" height="3"/>
<rect x="374" y="211" width="109" height="1"/>
<rect x="112" y="212" width="110" height="1"/>
<rect x="323" y="212" width="9" height="1"/>
<rect x="373" y="212" width="110" height="1"/>
<rect x="112" y="213" width="111" height="1"/>
<rect x="372" y="213" width="111" height="1"/>
<rect x="112" y="214" width="112" height="1"/>
<rect x="249" y="214" width="5" height="1"/>
<rect x="371" y="214" width="112" height="1"/>
<rect x="112" y="215" width="113" height="1"/>
<rect x="370" y="215" width="113" height="1"/>
<rect x="492" y="215" width="4" height="1"/>
<rect x="492" y="217" width="4" height="1"/>
<rect x="112" y="216" width="114" height="1"/>
<rect x="369" y="216" width="127" height="1"/>
<rect x="112" y="217" width="115" height="1"/>
<rect x="368" y="217" width="123" height="1"/>
<rect x="112" y="218" width="117" height="1"/>
<rect x="367" y="218" width="123" height="1"/>
<rect x="112" y="219" width="118" height="1"/>
<rect x="366" y="219" width="124" height="1"/>
<rect x="112" y="220" width="119" height="1"/>
<rect x="365" y="220" width="125" height="1"/>
<rect x="112" y="221" width="141" height="3"/>
<rect x="112" y="240" width="141" height="1"/>
<rect x="363" y="221" width="121" height="1"/>
<rect x="363" y="222" width="120" height="1"/>
<rect x="361" y="223" width="122" height="1"/>
<rect x="112" y="224" width="124" height="1"/>
<rect x="360" y="224" width="123" height="1"/>
<rect x="112" y="225" width="125" height="1"/>
<rect x="359" y="225" width="124" height="1"/>
<rect x="112" y="226" width="126" height="1"/>
<rect x="358" y="226" width="125" height="1"/>
<rect x="112" y="227" width="127" height="1"/>
<rect x="357" y="227" width="126" height="1"/>
<rect x="112" y="228" width="128" height="1"/>
<rect x="356" y="228" width="127" height="1"/>
<rect x="112" y="229" width="129" height="1"/>
<rect x="355" y="229" width="128" height="1"/>
<rect x="112" y="230" width="130" height="1"/>
<rect x="354" y="230" width="129" height="1"/>
<rect x="112" y="231" width="131" height="1"/>
<rect x="352" y="231" width="131" height="1"/>
<rect x="112" y="232" width="132" height="1"/>
<rect x="352" y="232" width="132" height="1"/>
<rect x="112" y="233" width="133" height="1"/>
<rect x="350" y="233" width="134" height="1"/>
<rect x="112" y="234" width="134" height="1"/>
<rect x="349" y="234" width="135" height="1"/>
<rect x="112" y="235" width="135" height="1"/>
<rect x="348" y="235" width="136" height="1"/>
<rect x="112" y="236" width="136" height="1"/>
<rect x="347" y="236" width="137" height="1"/>
<rect x="112" y="237" width="137" height="1"/>
<rect x="346" y="237" width="138" height="1"/>
<rect x="112" y="238" width="138" height="1"/>
<rect x="345" y="238" width="139" height="1"/>
<rect x="112" y="239" width="139" height="1"/>
<rect x="344" y="239" width="140" height="1"/>
<rect x="343" y="240" width="141" height="1"/>
<rect x="112" y="241" width="142" height="1"/>
<rect x="342" y="241" width="142" height="1"/>
<rect x="112" y="242" width="143" height="1"/>
<rect x="341" y="242" width="143" height="1"/>
<rect x="112" y="243" width="144" height="1"/>
<rect x="340" y="243" width="144" height="1"/>
<rect x="112" y="244" width="145" height="1"/>
<rect x="339" y="244" width="145" height="1"/>
<rect x="112" y="245" width="146" height="1"/>
<rect x="338" y="245" width="146" height="1"/>
<rect x="112" y="246" width="147" height="1"/>
<rect x="337" y="246" width="147" height="1"/>
<rect x="112" y="247" width="148" height="1"/>
<rect x="336" y="247" width="148" height="1"/>
<rect x="112" y="248" width="150" height="1"/>
<rect x="335" y="248" width="149" height="1"/>
<rect x="112" y="249" width="151" height="1"/>
<rect x="333" y="249" width="151" height="1"/>
<rect x="112" y="250" width="152" height="1"/>
<rect x="332" y="250" width="152" height="1"/>
<rect x="112" y="251" width="153" height="1"/>
<rect x="331" y="251" width="153" height="1"/>
<rect x="112" y="252" width="154" height="1"/>
<rect x="330" y="252" width="154" height="1"/>
<rect x="112" y="253" width="155" height="1"/>
<rect x="329" y="253" width="155" height="1"/>
<rect x="112" y="254" width="156" height="1"/>
<rect x="328" y="254" width="156" height="1"/>
<rect x="112" y="255" width="157" height="1"/>
<rect x="327" y="255" width="157" height="1"/>
<rect x="112" y="256" width="158" height="1"/>
<rect x="326" y="256" width="158" height="1"/>
<rect x="112" y="257" width="159" height="1"/>
<rect x="325" y="257" width="159" height="1"/>
<rect x="112" y="258" width="160" height="1"/>
<rect x="324" y="258" width="160" height="1"/>
<rect x="112" y="259" width="161" height="1"/>
<rect x="322" y="259" width="162" height="1"/>
<rect x="180" y="260" width="95" height="1"/>
<rect x="321" y="260" width="95" height="1"/>
<rect x="418" y="260" width="66" height="114"/>
<rect x="418" y="387" width="66" height="1"/>
<rect x="418" y="412" width="66" height="2"/>
<rect x="418" y="417" width="66" height="9"/>
<rect x="181" y="261" width="95" height="1"/>
<rect x="320" y="261" width="95" height="1"/>
<rect x="98" y="262" width="3" height="1"/>
<rect x="113" y="262" width="65" height="1"/>
<rect x="182" y="262" width="95" height="1"/>
<rect x="319" y="262" width="94" height="1"/>
<rect x="97" y="263" width="5" height="2"/>
<rect x="123" y="263" width="55" height="1"/>
<rect x="123" y="306" width="55" height="1"/>
<rect x="183" y="263" width="95" height="1"/>
<rect x="318" y="263" width="94" height="1"/>
<rect x="124" y="264" width="54" height="42"/>
<rect x="184" y="264" width="95" height="1"/>
<rect x="317" y="264" width="94" height="1"/>
<rect x="98" y="265" width="4" height="1"/>
<rect x="185" y="265" width="95" height="1"/>
<rect x="316" y="265" width="94" height="1"/>
<rect x="186" y="266" width="95" height="1"/>
<rect x="314" y="266" width="95" height="1"/>
<rect x="187" y="267" width="95" height="1"/>
<rect x="314" y="267" width="94" height="1"/>
<rect x="188" y="268" width="95" height="1"/>
<rect x="313" y="268" width="94" height="1"/>
<rect x="190" y="269" width="94" height="1"/>
<rect x="312" y="269" width="94" height="1"/>
<rect x="191" y="270" width="94" height="1"/>
<rect x="312" y="270" width="93" height="1"/>
<rect x="192" y="271" width="94" height="1"/>
<rect x="312" y="271" width="92" height="1"/>
<rect x="193" y="272" width="94" height="1"/>
<rect x="314" y="272" width="89" height="1"/>
<rect x="194" y="273" width="94" height="1"/>
<rect x="315" y="273" width="87" height="1"/>
<rect x="195" y="274" width="94" height="1"/>
<rect x="316" y="274" width="85" height="1"/>
<rect x="196" y="275" width="95" height="1"/>
<rect x="317" y="275" width="82" height="1"/>
<rect x="197" y="276" width="95" height="1"/>
<rect x="318" y="276" width="80" height="1"/>
<rect x="199" y="277" width="94" height="1"/>
<rect x="319" y="277" width="78" height="1"/>
<rect x="200" y="278" width="94" height="1"/>
<rect x="320" y="278" width="76" height="1"/>
<rect x="201" y="279" width="94" height="1"/>
<rect x="322" y="279" width="73" height="1"/>
<rect x="202" y="280" width="94" height="1"/>
<rect x="323" y="280" width="71" height="1"/>
<rect x="203" y="281" width="94" height="1"/>
<rect x="324" y="281" width="68" height="1"/>
<rect x="204" y="282" width="94" height="1"/>
<rect x="325" y="282" width="66" height="1"/>
<rect x="205" y="283" width="94" height="1"/>
<rect x="326" y="283" width="64" height="1"/>
<rect x="206" y="284" width="95" height="1"/>
<rect x="327" y="284" width="62" height="1"/>
<rect x="207" y="285" width="95" height="1"/>
<rect x="328" y="285" width="60" height="1"/>
<rect x="208" y="286" width="95" height="1"/>
<rect x="329" y="286" width="58" height="1"/>
<rect x="209" y="287" width="95" height="1"/>
<rect x="330" y="287" width="56" height="1"/>
<rect x="199" y="288" width="106" height="1"/>
<rect x="331" y="288" width="54" height="1"/>
<rect x="196" y="289" width="110" height="1"/>
<rect x="332" y="289" width="52" height="1"/>
<rect x="196" y="290" width="111" height="1"/>
<rect x="334" y="290" width="49" height="1"/>
<rect x="209" y="291" width="99" height="1"/>
<rect x="335" y="291" width="47" height="1"/>
<rect x="215" y="292" width="94" height="1"/>
<rect x="336" y="292" width="45" height="1"/>
<rect x="216" y="293" width="94" height="1"/>
<rect x="337" y="293" width="43" height="1"/>
<rect x="217" y="294" width="94" height="1"/>
<rect x="338" y="294" width="41" height="1"/>
<rect x="218" y="295" width="94" height="1"/>
<rect x="340" y="295" width="38" height="1"/>
<rect x="219" y="296" width="94" height="1"/>
<rect x="341" y="296" width="36" height="1"/>
<rect x="220" y="297" width="94" height="1"/>
<rect x="342" y="297" width="33" height="1"/>
<rect x="221" y="298" width="95" height="1"/>
<rect x="343" y="298" width="31" height="1"/>
<rect x="223" y="299" width="94" height="1"/>
<rect x="344" y="299" width="29" height="1"/>
<rect x="224" y="300" width="94" height="1"/>
<rect x="345" y="300" width="27" height="1"/>
<rect x="225" y="301" width="94" height="1"/>
<rect x="346" y="301" width="25" height="1"/>
<rect x="226" y="302" width="94" height="1"/>
<rect x="347" y="302" width="23" height="1"/>
<rect x="227" y="303" width="94" height="1"/>
<rect x="348" y="303" width="21" height="1"/>
<rect x="228" y="304" width="94" height="1"/>
<rect x="349" y="304" width="19" height="1"/>
<rect x="229" y="305" width="94" height="1"/>
<rect x="350" y="305" width="17" height="1"/>
<rect x="230" y="306" width="94" height="1"/>
<rect x="351" y="306" width="15" height="1"/>
<rect x="231" y="307" width="94" height="1"/>
<rect x="353" y="307" width="12" height="1"/>
<rect x="232" y="308" width="94" height="1"/>
<rect x="354" y="308" width="10" height="1"/>
<rect x="233" y="309" width="94" height="1"/>
<rect x="355" y="309" width="8" height="1"/>
<rect x="234" y="310" width="94" height="1"/>
<rect x="356" y="310" width="5" height="1"/>
<rect x="236" y="311" width="94" height="1"/>
<rect x="357" y="311" width="3" height="1"/>
<rect x="237" y="312" width="93" height="1"/>
<rect x="238" y="313" width="93" height="1"/>
<rect x="106" y="314" width="3" height="1"/>
<rect x="110" y="314" width="68" height="1"/>
<rect x="239" y="314" width="94" height="1"/>
<rect x="106" y="315" width="72" height="4"/>
<rect x="240" y="315" width="94" height="1"/>
<rect x="241" y="316" width="94" height="1"/>
<rect x="242" y="317" width="94" height="1"/>
<rect x="243" y="318" width="94" height="1"/>
<rect x="109" y="319" width="69" height="1"/>
<rect x="245" y="319" width="93" height="1"/>
<rect x="246" y="320" width="93" height="1"/>
<rect x="246" y="321" width="95" height="1"/>
<rect x="248" y="322" width="93" height="1"/>
<rect x="249" y="323" width="94" height="1"/>
<rect x="250" y="324" width="93" height="1"/>
<rect x="251" y="325" width="93" height="1"/>
<rect x="252" y="326" width="92" height="1"/>
<rect x="253" y="327" width="90" height="1"/>
<rect x="254" y="328" width="88" height="1"/>
<rect x="266" y="329" width="75" height="1"/>
<rect x="266" y="330" width="74" height="1"/>
<rect x="263" y="331" width="1" height="1"/>
<rect x="266" y="331" width="72" height="1"/>
<rect x="259" y="332" width="78" height="1"/>
<rect x="260" y="333" width="76" height="1"/>
<rect x="261" y="334" width="74" height="1"/>
<rect x="262" y="335" width="72" height="1"/>
<rect x="264" y="336" width="69" height="1"/>
<rect x="264" y="337" width="68" height="1"/>
<rect x="265" y="338" width="66" height="1"/>
<rect x="266" y="339" width="63" height="1"/>
<rect x="268" y="340" width="60" height="1"/>
<rect x="232" y="341" width="5" height="1"/>
<rect x="232" y="344" width="5" height="1"/>
<rect x="268" y="341" width="59" height="1"/>
<rect x="232" y="342" width="6" height="2"/>
<rect x="270" y="342" width="56" height="1"/>
<rect x="270" y="343" width="55" height="1"/>
<rect x="272" y="344" width="52" height="1"/>
<rect x="273" y="345" width="50" height="1"/>
<rect x="274" y="346" width="48" height="1"/>
<rect x="275" y="347" width="46" height="1"/>
<rect x="276" y="348" width="44" height="1"/>
<rect x="277" y="349" width="42" height="1"/>
<rect x="278" y="350" width="40" height="1"/>
<rect x="279" y="351" width="37" height="1"/>
<rect x="280" y="352" width="35" height="1"/>
<rect x="282" y="353" width="32" height="1"/>
<rect x="283" y="354" width="30" height="1"/>
<rect x="284" y="355" width="28" height="1"/>
<rect x="285" y="356" width="26" height="1"/>
<rect x="286" y="357" width="24" height="1"/>
<rect x="287" y="358" width="22" height="1"/>
<rect x="288" y="359" width="20" height="1"/>
<rect x="289" y="360" width="18" height="1"/>
<rect x="290" y="361" width="16" height="1"/>
<rect x="291" y="362" width="14" height="1"/>
<rect x="292" y="363" width="11" height="1"/>
<rect x="294" y="364" width="8" height="1"/>
<rect x="295" y="365" width="6" height="1"/>
<rect x="296" y="366" width="4" height="1"/>
<rect x="297" y="367" width="2" height="1"/>
<rect x="418" y="374" width="61" height="1"/>
<rect x="418" y="375" width="60" height="11"/>
<rect x="182" y="377" width="1" height="1"/>
<rect x="398" y="398" width="2" height="1"/>
<rect x="397" y="399" width="4" height="3"/>
<rect x="494" y="403" width="6" height="1"/>
<rect x="493" y="404" width="8" height="1"/>
<rect x="406" y="414" width="1" height="1"/>
<rect x="408" y="414" width="1" height="1"/>
<rect x="428" y="414" width="64" height="2"/>
<rect x="406" y="415" width="6" height="1"/>
<rect x="103" y="416" width="75" height="6"/>
<rect x="406" y="416" width="3" height="1"/>
<rect x="410" y="416" width="1" height="1"/>
<rect x="420" y="416" width="72" height="1"/>
<rect x="94" y="422" width="84" height="1"/>
<rect x="93" y="423" width="85" height="3"/>
<rect x="112" y="426" width="65" height="1"/>
<rect x="419" y="426" width="65" height="1"/>
<rect x="420" y="427" width="64" height="1"/>
<rect x="112" y="428" width="63" height="1"/>
<rect x="421" y="428" width="63" height="1"/>
<rect x="422" y="429" width="62" height="1"/>
<rect x="423" y="430" width="61" height="1"/>
<rect x="424" y="431" width="60" height="1"/>
<rect x="427" y="433" width="56" height="1"/>
<rect x="428" y="434" width="55" height="1"/>
<rect x="429" y="435" width="54" height="1"/>
<rect x="430" y="436" width="53" height="1"/>
<rect x="431" y="437" width="52" height="1"/>
<rect x="432" y="438" width="51" height="1"/>
<rect x="112" y="439" width="51" height="1"/>
<rect x="433" y="439" width="50" height="1"/>
<rect x="434" y="440" width="49" height="1"/>
<rect x="435" y="441" width="48" height="1"/>
<rect x="436" y="442" width="47" height="1"/>
<rect x="436" y="457" width="47" height="2"/>
<rect x="438" y="443" width="45" height="1"/>
<rect x="438" y="460" width="45" height="1"/>
<rect x="439" y="444" width="44" height="1"/>
<rect x="439" y="461" width="44" height="1"/>
<rect x="440" y="445" width="43" height="1"/>
<rect x="440" y="462" width="43" height="1"/>
<rect x="112" y="446" width="43" height="1"/>
<rect x="441" y="446" width="42" height="1"/>
<rect x="442" y="447" width="41" height="1"/>
<rect x="443" y="448" width="40" height="1"/>
<rect x="444" y="449" width="39" height="1"/>
<rect x="445" y="450" width="38" height="1"/>
<rect x="446" y="451" width="37" height="1"/>
<rect x="447" y="452" width="36" height="1"/>
<rect x="448" y="453" width="35" height="1"/>
<rect x="449" y="454" width="34" height="1"/>
<rect x="450" y="455" width="33" height="2"/>
<rect x="112" y="458" width="30" height="1"/>
<rect x="437" y="459" width="46" height="1"/>
<rect x="463" y="466" width="21" height="1"/>
<rect x="112" y="467" width="20" height="1"/>
<rect x="466" y="469" width="18" height="1"/>
<rect x="470" y="473" width="14" height="1"/>
<rect x="472" y="474" width="12" height="1"/>
<rect x="473" y="475" width="11" height="1"/>
<rect x="474" y="476" width="10" height="1"/>
<rect x="475" y="477" width="9" height="1"/>
<rect x="476" y="478" width="8" height="1"/>
<rect x="112" y="479" width="7" height="1"/>
<rect x="113" y="480" width="5" height="1"/>
<rect x="113" y="482" width="3" height="1"/>
</g>
</svg>